<svg width="350" height="115" viewBox="0 0 350 115" fill="none" xmlns="http://www.w3.org/2000/svg">
<g clip-path="url(#clip0_162_850)">
<path d="M57.5807 21.8321C55.733 20.9059 54.3588 19.5268 53.7206 17.5096C53.2162 15.9298 53.2368 14.3654 53.8595 12.8113C54.1323 12.1372 54.5698 11.7564 55.2955 12.024C56.0212 12.2864 56.1344 12.8216 55.8513 13.5215C54.6624 16.4546 56.6748 19.8149 59.7063 20.1134C60.7151 20.2112 61.832 19.8973 62.7944 19.5113C63.7466 19.1305 64.4929 18.971 65.445 19.5576C66.8141 20.3964 68.3118 20.4376 69.7169 19.5525C70.6639 18.9556 71.4925 19.0276 72.4499 19.5834C74.524 20.7927 77.0151 20.2523 78.5128 18.3638C80.0363 16.4392 80.0157 13.8045 78.4613 12.0549C76.7217 10.0994 74.2358 9.62084 72.208 10.9485C71.3742 11.494 70.6742 11.5197 69.8661 10.9845C68.214 9.88843 66.5361 9.95533 64.9149 11.036C64.2818 11.4579 63.7311 11.4528 63.1032 11.072C60.9261 9.76493 58.8931 9.90387 57.0351 11.7049C56.9476 11.7924 56.8138 11.8336 56.6954 11.9005C56.4844 11.7204 56.2888 11.5609 56.0932 11.391C55.4653 10.8404 55.455 10.367 56.0469 9.7392C57.7196 7.98444 60.7563 7.48528 63.026 8.65341C63.5973 8.94673 64.0142 8.96216 64.6267 8.6637C66.4538 7.77345 68.353 7.78374 70.1852 8.70487C70.7617 8.99304 71.2095 9.01362 71.8168 8.72545C75.3732 7.05817 79.3414 8.57107 81.1171 12.2092C82.7898 15.6467 81.4414 19.7686 78.0393 21.5234C77.5555 21.7755 77.4732 21.9968 77.5967 22.5063C77.9055 23.803 78.1834 25.1153 78.379 26.4326C78.5437 27.5441 78.24 27.8272 77.1901 28.1771C76.9019 28.2749 76.6188 28.738 76.5416 29.0828C75.9651 31.6506 74.8637 33.8942 72.6763 35.474C67.9258 38.9064 61.4099 36.8068 59.2482 31.1514C59.0166 30.5442 58.8056 29.9216 58.6718 29.2886C58.5328 28.6093 58.3887 28.1616 57.5086 28.033C56.644 27.9095 56.6079 27.0192 56.7366 26.2731C56.9888 24.8322 57.2822 23.3965 57.5807 21.827V21.8321ZM74.4983 28.2131H60.6533C61.0702 32.0057 64.1326 34.9131 67.6736 34.9697C71.0654 35.0212 73.9682 32.1703 74.4983 28.2131ZM76.207 25.9283C75.9394 24.7911 75.7284 23.7516 75.4299 22.7378C75.3784 22.568 74.9718 22.4702 74.7145 22.4033C73.6902 22.1306 72.6403 21.9454 71.6469 21.5954C71.1528 21.4205 70.808 21.3381 70.3088 21.5954C68.564 22.496 66.7523 22.6504 64.9715 21.6932C64.3024 21.333 63.7723 21.405 63.0826 21.7035C62.2334 22.074 61.2709 22.1769 60.3651 22.4188C60.1129 22.4857 59.7218 22.6092 59.6754 22.779C59.4078 23.803 59.2174 24.8425 58.9909 25.9335H76.2019L76.207 25.9283Z" fill="#8F5924"/>
<path d="M85.1523 45.8174C84.8589 47.0833 84.6891 48.1896 84.3442 49.2291C83.7009 51.1794 81.7657 52.4762 80.0158 52.2549C78.0085 51.9976 76.4696 50.4487 76.3306 48.2874C76.2071 46.404 76.3049 44.5051 76.3049 42.4725C74.8741 42.2204 73.4484 41.9733 71.8117 41.6852C71.8117 42.6012 71.8375 43.3679 71.8066 44.1346C71.7757 44.9477 71.7654 45.7711 71.611 46.5635C71.1426 48.9461 69.6295 50.2068 67.4318 50.1348C65.4039 50.0628 63.8239 48.5396 63.5665 46.2754C63.3967 44.7882 63.3709 43.2856 63.2731 41.6903C62.0225 41.8859 60.7769 42.0814 59.5365 42.2718C58.9807 42.3593 58.8314 42.6269 58.8726 43.2187C58.9858 44.9117 59.0836 46.615 59.0167 48.3029C58.9395 50.284 57.555 51.7712 55.6095 52.2086C54.1118 52.5483 52.3464 51.6786 51.4303 50.0679C51.0649 49.4247 50.8024 48.6991 50.612 47.9838C50.4215 47.2737 50.3804 46.5224 50.2259 45.488C48.5893 46.6922 46.9937 47.7111 45.5887 48.9461C44.1681 50.1914 42.9278 51.6477 41.6308 53.0268C41.1315 53.5569 40.7095 54.2207 39.8602 53.5671C39.2272 53.0731 39.2375 52.5482 39.9683 51.6168C42.377 48.5396 45.2953 46.0386 48.6922 44.1141C53.3243 41.4845 58.2962 39.9458 63.6128 39.4776C71.7397 38.7571 79.429 40.1414 86.5419 44.2067C89.9543 46.157 92.8828 48.7094 95.3584 51.7712C95.7702 52.2807 96.2231 52.821 95.5695 53.4848C94.9879 54.0714 94.4114 53.9274 93.6703 53.1658C92.049 51.5088 90.4381 49.8363 88.7036 48.2977C87.6434 47.356 86.3669 46.6562 85.142 45.8225L85.1523 45.8174ZM56.8448 42.8739C55.347 43.4451 54.014 43.9288 52.7016 44.4691C52.5266 44.5412 52.3361 44.8911 52.3619 45.0764C52.5369 46.2599 52.6552 47.4692 53.0258 48.5962C53.3964 49.7077 54.4875 50.2686 55.3831 50.0833C56.3352 49.8878 57.0712 48.9204 57.0506 47.7214C57.03 46.193 56.922 44.6698 56.8396 42.8739H56.8448ZM78.3173 42.8533C78.3173 44.7624 78.235 46.4246 78.343 48.0764C78.4202 49.2291 79.3106 50.0319 80.2731 50.1091C81.1584 50.1811 82.1054 49.5276 82.3936 48.4109C82.6715 47.32 82.7436 46.1724 82.8722 45.0455C82.8877 44.9014 82.7333 44.6492 82.5995 44.5926C81.2356 44.0163 79.8562 43.4708 78.3225 42.8482L78.3173 42.8533ZM65.2289 41.5205C65.4039 43.2135 65.4863 44.7779 65.7436 46.3165C65.9238 47.4126 66.634 47.9478 67.5244 47.9632C68.4817 47.9838 69.3927 47.3766 69.5523 46.3114C69.789 44.7522 69.8199 43.1569 69.9434 41.5154H65.2289V41.5205Z" fill="#8F5924"/>
<path d="M41.5331 71.9384C36.9472 72.0361 31.9033 66.2521 34.9966 60.3806C36.273 57.962 38.2134 56.1918 40.6015 54.931C42.8095 53.7681 44.9042 54.576 45.9542 56.8247C46.1034 57.1489 46.4792 57.4525 46.8188 57.5863C47.807 57.9774 48.5173 58.6207 49.0834 59.5161C49.3562 59.9483 49.7731 60.36 50.2209 60.5864C51.7855 61.3789 52.5833 63.0925 52.0017 64.7855C51.1988 67.1269 49.4077 68.6604 47.4931 70.0601C45.877 71.2437 44.0807 71.9486 41.5331 71.9384ZM44.0653 57.7098C43.4014 56.6446 42.7734 56.3256 41.9345 56.7476C39.8295 57.8128 37.9972 59.2176 36.9009 61.3789C34.7753 65.5728 38.2494 69.2522 41.2294 69.6021C44.3329 69.9726 49.0834 67.0549 49.8864 64.0548C49.9893 63.6637 49.7319 63.0462 49.4386 62.7117C49.0011 62.2228 48.5791 62.6551 48.193 62.9844C47.349 63.7049 46.51 64.4407 45.6093 65.0788C45.1101 65.4339 44.5594 65.3361 44.1476 64.7855C43.7513 64.2606 43.9932 63.8489 44.369 63.4939C45.177 62.7323 46.0211 62.0067 46.8291 61.2451C47.0041 61.0804 47.2151 60.8128 47.1946 60.6121C47.1122 59.7373 45.7689 59.1764 45.0741 59.7219C44.3535 60.288 43.6844 60.9158 42.9793 61.4973C42.5264 61.8678 42.0014 62.1251 41.4764 61.6774C40.864 61.1576 41.0029 60.5658 41.5176 60.0667C42.336 59.2691 43.1903 58.5126 44.0704 57.6996L44.0653 57.7098Z" fill="#8F5924"/>
<path d="M247.972 53.1864C248.245 52.5483 248.435 51.9102 248.77 51.3647C249.753 49.7643 251.184 48.8329 253.098 48.7454C253.572 48.7249 253.757 48.905 253.731 49.3784C253.618 51.622 252.172 53.7679 249.758 54.4163C249.439 54.5037 249.109 54.5809 248.78 54.6015C248.507 54.6169 248.471 54.7353 248.471 54.9669C248.481 56.1556 248.471 57.3494 248.471 58.5382C248.471 58.6771 248.471 58.816 248.44 58.9447C248.384 59.1814 248.162 59.3306 247.926 59.31C247.668 59.2843 247.545 59.1196 247.514 58.8829C247.493 58.7388 247.504 58.5845 247.504 58.4352C247.504 57.3237 247.504 56.2122 247.498 55.1058C247.498 54.5346 247.545 54.653 247.025 54.5809C245.651 54.3957 244.493 53.809 243.597 52.749C242.774 51.7712 242.321 50.6443 242.274 49.3629C242.259 48.8792 242.429 48.7249 242.913 48.7454C245.193 48.8586 247.195 50.4642 247.823 52.6924C247.869 52.8519 247.92 53.0166 247.967 53.1864H247.972ZM252.424 49.8415C252.378 49.8467 252.331 49.8518 252.29 49.8621C250.715 50.2686 249.362 51.6683 249.063 53.3047C249.022 53.5209 249.115 53.5569 249.284 53.4951C249.737 53.3202 250.221 53.1812 250.638 52.9342C251.703 52.3013 252.336 51.3338 252.614 50.1348C252.65 49.9753 252.671 49.8261 252.424 49.8467V49.8415ZM246.948 53.4385C246.932 53.3305 246.932 53.2944 246.927 53.2636C246.716 51.761 245.146 50.1348 243.633 49.857C243.345 49.8055 243.309 49.8312 243.386 50.1348C243.71 51.411 244.4 52.4248 245.568 53.068C245.924 53.2636 246.33 53.3768 246.716 53.5106C246.783 53.5312 246.876 53.4694 246.948 53.4488V53.4385Z" fill="#8F5924"/>
<path d="M248.034 48.2668C248.25 47.32 248.579 46.4555 249.181 45.7299C250.185 44.5155 251.467 43.8105 253.057 43.7384C253.613 43.7127 253.788 43.8979 253.731 44.4588C253.536 46.3731 252.722 47.9375 250.988 48.8741C248.826 50.037 246.634 49.9753 244.585 48.6219C243.072 47.6287 242.372 46.1055 242.274 44.3096C242.254 43.9185 242.46 43.723 242.861 43.7281C244.266 43.7487 245.424 44.3456 246.412 45.2976C247.174 46.0335 247.637 46.9443 247.89 47.9632C247.91 48.0404 247.931 48.1176 247.951 48.1948C247.956 48.2102 247.982 48.2257 248.034 48.2668ZM243.36 44.7933C243.35 44.8705 243.34 44.9014 243.345 44.9323C243.607 46.6304 244.894 48.0456 246.551 48.4572C246.943 48.555 246.994 48.5138 246.891 48.1279C246.469 46.5532 245.501 45.4829 243.957 44.9374C243.767 44.8705 243.566 44.8396 243.36 44.7933ZM249.223 48.5087C249.248 48.5087 249.284 48.5036 249.32 48.4933C250.813 48.1588 252.228 46.9495 252.63 45.0918C252.681 44.8448 252.619 44.7933 252.347 44.8551C251.611 45.0352 250.957 45.3748 250.401 45.8946C249.717 46.543 249.269 47.32 249.084 48.2463C249.058 48.3646 248.991 48.5087 249.223 48.5036V48.5087Z" fill="#8F5924"/>
<path d="M247.982 43.2189C248.188 42.6786 248.322 42.1743 248.564 41.7266C249.531 39.9152 251.029 38.8809 253.108 38.7625C253.587 38.7368 253.757 38.9118 253.731 39.3955C253.608 41.8604 251.832 43.8416 249.876 44.3665C248.409 44.7627 246.912 44.7833 245.507 44.1349C243.489 43.2035 242.449 41.5619 242.274 39.3595C242.238 38.8758 242.424 38.7368 242.907 38.7471C245.301 38.8191 247.293 40.6614 247.854 42.8381C247.884 42.9565 247.931 43.0697 247.977 43.2189H247.982ZM243.355 39.838C243.566 41.4333 244.781 43.0079 246.598 43.4762C246.912 43.5586 246.994 43.4659 246.901 43.1314C246.577 41.9427 245.929 40.9959 244.858 40.3578C244.405 40.0851 243.921 39.8946 243.355 39.838ZM252.625 40.0079C252.578 39.977 252.506 39.9049 252.429 39.8895C252.357 39.8741 252.27 39.8998 252.192 39.9204C250.566 40.3526 249.408 41.6597 249.032 43.2652C248.97 43.5225 249.022 43.5586 249.3 43.4917C250.273 43.2704 251.06 42.7506 251.688 41.9839C252.146 41.423 252.45 40.7952 252.614 40.0079H252.625Z" fill="#8F5924"/>
<path d="M249.835 37.5119C249.82 39.03 249.264 40.2907 248.224 41.3559C248.091 41.4897 247.982 41.5875 247.807 41.392C246.933 40.4451 246.305 39.3747 246.171 38.0677C246.006 36.4621 246.51 35.0676 247.56 33.8635C247.849 33.5341 248.132 33.5393 248.435 33.8737C249.377 34.9081 249.83 36.138 249.835 37.5119ZM247.993 34.9647C246.886 36.3541 246.835 38.644 248.008 39.9974C249.192 38.4999 249.007 36.2049 247.993 34.9647Z" fill="#8F5924"/>
<path d="M252.599 33.3383C252.599 34.6763 252.599 36.0194 252.599 37.3573C252.599 37.4602 252.599 37.5683 252.578 37.6661C252.517 37.9079 252.342 38.0263 252.1 38.0263C251.863 38.0263 251.714 37.8925 251.662 37.6661C251.642 37.5683 251.642 37.4602 251.642 37.3573C251.642 34.702 251.642 32.0467 251.642 29.3863C251.642 29.237 251.647 29.0878 251.688 28.9489C251.745 28.743 251.904 28.6195 252.12 28.6247C252.352 28.6247 252.511 28.7636 252.568 28.9849C252.604 29.1238 252.599 29.2782 252.599 29.4274C252.599 30.7345 252.599 32.0364 252.599 33.3435V33.3383Z" fill="#8F5924"/>
<path d="M244.333 33.3746C244.333 34.692 244.333 36.0042 244.333 37.3215C244.333 37.4244 244.338 37.5274 244.328 37.6303C244.297 37.8464 244.158 37.9751 243.947 38.0162C243.731 38.0574 243.551 37.9751 243.468 37.7744C243.412 37.6406 243.391 37.4862 243.391 37.3421C243.386 34.6662 243.381 31.9852 243.381 29.3093C243.381 28.8462 243.551 28.6043 243.854 28.6095C244.158 28.6146 244.328 28.8616 244.328 29.3196C244.328 30.6678 244.328 32.0212 244.328 33.3694C244.328 33.3694 244.333 33.3694 244.338 33.3694L244.333 33.3746Z" fill="#8F5924"/>
<path d="M247.509 30.7606C247.509 30.2357 247.509 29.7057 247.509 29.1808C247.509 28.8154 247.678 28.6199 247.967 28.6147C248.255 28.6147 248.445 28.836 248.45 29.2014C248.456 30.2409 248.456 31.2855 248.45 32.325C248.45 32.6852 248.26 32.9013 247.961 32.9013C247.678 32.9013 247.509 32.7006 247.503 32.3404C247.503 31.8155 247.503 31.2855 247.503 30.7606H247.509Z" fill="#8F5924"/>
<path d="M108.159 59.3102V57.5812H108.967C109.507 57.5812 109.986 57.5194 110.408 57.3908C110.83 57.2621 111.17 57.0048 111.427 56.624C111.684 56.2381 111.813 55.6617 111.813 54.895V36.1792C111.813 35.4382 111.679 34.8773 111.411 34.5068C111.144 34.1363 110.799 33.8944 110.372 33.7761C109.95 33.6629 109.481 33.6011 108.972 33.6011H108.164V31.8721H118.73C122.137 31.8721 124.685 32.4278 126.378 33.5445C128.072 34.6612 128.916 36.4056 128.916 38.7882C128.916 39.9152 128.71 40.8672 128.298 41.6493C127.886 42.4315 127.325 43.0645 126.605 43.5533C125.89 44.0422 125.056 44.4384 124.109 44.7421V44.9325C125.287 45.164 126.322 45.5654 127.223 46.1417C128.123 46.7181 128.818 47.4797 129.317 48.4265C129.817 49.3734 130.069 50.5158 130.069 51.8486C130.069 54.3341 129.225 56.1969 127.531 57.4371C125.838 58.6824 123.29 59.2999 119.883 59.2999H108.164L108.159 59.3102ZM118.612 43.9393C120.048 43.9393 121.16 43.7592 121.957 43.399C122.75 43.0387 123.316 42.483 123.651 41.7265C123.985 40.9701 124.15 39.9924 124.15 38.7882C124.15 36.9202 123.728 35.6389 122.884 34.9442C122.04 34.2546 120.588 33.9047 118.54 33.9047H116.27V43.9341H118.617L118.612 43.9393ZM119.688 57.2724C121.736 57.2724 123.182 56.8556 124.031 56.0219C124.876 55.1883 125.298 53.7629 125.298 51.7354C125.298 50.4283 125.123 49.3477 124.778 48.4883C124.433 47.6289 123.862 46.996 123.069 46.5843C122.276 46.1726 121.175 45.9719 119.765 45.9719H116.27V57.2673H119.693L119.688 57.2724Z" fill="#8F5924"/>
<path d="M133.481 59.3104V57.5814H134.135C134.67 57.5814 135.164 57.5248 135.612 57.4064C136.06 57.2932 136.425 57.0565 136.708 56.6963C136.991 56.3361 137.13 55.8009 137.13 55.0805V36.1434C137.13 35.4024 136.981 34.8518 136.688 34.4916C136.394 34.1314 136.024 33.8946 135.571 33.7814C135.123 33.6682 134.644 33.6065 134.13 33.6065H133.476V31.8774H144.392C146.724 31.8774 148.639 32.1605 150.136 32.7214C151.634 33.2874 152.741 34.1108 153.461 35.2017C154.177 36.2927 154.537 37.6409 154.537 39.2567C154.537 40.641 154.259 41.7988 153.708 42.7354C153.158 43.6719 152.452 44.4181 151.593 44.9841C150.733 45.5502 149.843 45.9824 148.922 46.2912L154.032 54.4732C154.696 55.523 155.335 56.3052 155.937 56.8198C156.539 57.3344 157.224 57.5865 157.99 57.5865H158.145V59.3156H157.378C155.813 59.3156 154.568 59.2332 153.631 59.0686C152.694 58.9039 151.933 58.5694 151.346 58.0702C150.754 57.5711 150.178 56.8352 149.617 55.8626L144.619 47.2586H141.623V55.0959C141.623 55.8112 141.757 56.3515 142.025 56.7117C142.293 57.0719 142.653 57.3087 143.101 57.4219C143.548 57.5351 144.027 57.5968 144.542 57.5968H145.118V59.3259H133.476L133.481 59.3104ZM144.166 45.3238C146.292 45.3238 147.759 44.8349 148.567 43.8623C149.375 42.8897 149.776 41.418 149.776 39.442C149.776 38.0834 149.591 36.9976 149.22 36.1743C148.85 35.3561 148.242 34.7592 147.393 34.3887C146.549 34.0181 145.448 33.8329 144.089 33.8329H141.629V45.3238H144.166Z" fill="#8F5924"/>
<path d="M159.308 59.3104V57.5814H160.038C160.579 57.5814 161.063 57.5196 161.5 57.391C161.938 57.2623 162.288 57.0205 162.555 56.6603C162.823 56.3 162.957 55.7906 162.957 55.1216V36.2566C162.957 35.4642 162.823 34.8878 162.555 34.5276C162.288 34.1674 161.932 33.9255 161.5 33.7969C161.063 33.6682 160.579 33.6065 160.038 33.6065H159.308V31.8774H179.252L179.406 38.7164H177.219L177.028 36.9874C176.977 36.4264 176.838 35.9119 176.606 35.4487C176.374 34.9856 176.035 34.6151 175.587 34.3321C175.139 34.049 174.542 33.9101 173.801 33.9101H167.424V43.9755H176.683V45.9722H167.424V57.2675H174.764C175.556 57.2675 176.189 57.1285 176.668 56.8455C177.141 56.5625 177.507 56.192 177.764 55.7289C178.021 55.2657 178.186 54.7563 178.263 54.1902L178.531 52.4612H180.724L180.456 59.3001H159.318L159.308 59.3104Z" fill="#8F5924"/>
<path d="M182.247 59.3104V57.5814H182.901C183.415 57.5814 183.827 57.5042 184.151 57.3498C184.47 57.1954 184.769 56.9073 185.037 56.4853C185.304 56.0633 185.582 55.4407 185.86 54.6225L194.352 31.8774H197.965L206.535 55.4716C206.741 56.0119 206.962 56.4338 207.209 56.7375C207.451 57.0462 207.75 57.2623 208.094 57.391C208.439 57.5196 208.856 57.5814 209.345 57.5814H209.808V59.3104H198.665V57.5814H199.664C200.379 57.5814 200.925 57.4476 201.295 57.1749C201.666 56.9073 201.851 56.4647 201.851 55.8472C201.851 55.6671 201.836 55.5024 201.815 55.3481C201.79 55.1937 201.748 55.029 201.702 54.8489C201.651 54.6688 201.589 54.5041 201.512 54.3497L200.05 50.1609H190.137L188.794 54.005C188.717 54.2108 188.655 54.4218 188.603 54.6379C188.552 54.854 188.506 55.0599 188.47 55.2503C188.434 55.4407 188.413 55.6311 188.413 55.806C188.413 56.3978 188.603 56.8404 188.989 57.1337C189.375 57.427 189.962 57.5762 190.76 57.5762H191.836V59.3053H182.268L182.247 59.3104ZM190.894 48.1283H199.309L196.962 41.3254C196.73 40.5844 196.499 39.8845 196.272 39.231C196.041 38.5774 195.835 37.9445 195.655 37.327C195.474 36.7146 195.31 36.0971 195.155 35.4847C195.027 36.0765 194.877 36.658 194.713 37.2344C194.548 37.8107 194.368 38.4025 194.172 38.9994C193.982 39.6015 193.745 40.2756 193.462 41.0166L190.889 48.1232L190.894 48.1283Z" fill="#8F5924"/>
<path d="M211.146 59.3104V57.5814H211.913C212.454 57.5814 212.938 57.5093 213.375 57.3704C213.813 57.2315 214.157 56.9639 214.415 56.5831C214.672 56.1971 214.801 55.6465 214.801 54.9312V36.1434C214.801 35.4281 214.667 34.8878 214.399 34.5276C214.132 34.1674 213.771 33.9255 213.324 33.7969C212.876 33.6682 212.382 33.6065 211.846 33.6065H211.157V31.8774H223.185C225.877 31.8774 228.182 32.3972 230.102 33.4315C232.022 34.471 233.489 35.9993 234.503 38.0217C235.517 40.044 236.021 42.5192 236.021 45.437C236.021 48.3547 235.542 50.6601 234.58 52.7391C233.618 54.8129 232.192 56.4287 230.293 57.5814C228.399 58.7341 226.026 59.3104 223.185 59.3104H211.157H211.146ZM222.289 57.2366C224.261 57.2366 225.897 56.7735 227.189 55.8524C228.481 54.9312 229.464 53.5933 230.128 51.8385C230.792 50.0838 231.126 47.9533 231.126 45.4421C231.126 42.9309 230.792 40.8262 230.128 39.1229C229.464 37.4196 228.481 36.128 227.189 35.2429C225.897 34.3578 224.276 33.9152 222.325 33.9152H219.253V57.2366H222.289Z" fill="#8F5924"/>
<path d="M271.889 59.3102C269.12 59.3102 266.825 58.7236 264.993 57.5452C263.16 56.3668 261.796 54.7149 260.901 52.5896C260.005 50.4644 259.558 47.9789 259.558 45.1332C259.558 42.2875 260.005 39.8174 260.901 37.7179C261.796 35.6183 263.171 33.9819 265.013 32.819C266.856 31.656 269.162 31.0693 271.931 31.0693C274.7 31.0693 276.805 31.6508 278.637 32.819C280.469 33.9871 281.859 35.6235 282.806 37.7385C283.753 39.8534 284.226 42.3286 284.226 45.1743C284.226 48.02 283.753 50.4952 282.806 52.6102C281.859 54.7252 280.469 56.3719 278.637 57.5503C276.805 58.7287 274.555 59.3154 271.895 59.3154L271.889 59.3102ZM271.889 57.1181C273.732 57.1181 275.199 56.6446 276.29 55.6978C277.381 54.7509 278.158 53.3873 278.632 51.6068C279.105 49.8263 279.342 47.6804 279.342 45.1692C279.342 42.658 279.105 40.5121 278.632 38.7316C278.158 36.9511 277.376 35.5926 276.29 34.6612C275.199 33.7246 273.747 33.2564 271.925 33.2564C269.182 33.2564 267.252 34.2958 266.125 36.3696C264.998 38.4435 264.432 41.3766 264.432 45.1692C264.432 47.6804 264.674 49.8263 265.162 51.6068C265.646 53.3873 266.444 54.7509 267.545 55.6978C268.647 56.6446 270.093 57.1181 271.889 57.1181Z" fill="#8F5924"/>
<path d="M287.721 58.9242V57.1952H288.333C288.92 57.1952 289.44 57.1334 289.888 57.0048C290.336 56.8761 290.696 56.6188 290.963 56.238C291.231 55.8521 291.365 55.2757 291.365 54.509V35.7572C291.365 35.0162 291.226 34.4656 290.943 34.1053C290.66 33.7451 290.294 33.5084 289.847 33.3952C289.399 33.282 288.92 33.2202 288.405 33.2202H287.716V31.4912H295.174L308.895 52.1624V35.7572C308.895 35.0419 308.756 34.4964 308.473 34.1259C308.19 33.7554 307.83 33.5136 307.397 33.3952C306.96 33.282 306.476 33.2202 305.936 33.2202H305.246V31.4912H315.009V33.2202H314.32C313.779 33.2202 313.29 33.2871 312.843 33.4106C312.395 33.5393 312.04 33.7966 311.788 34.1774C311.53 34.5633 311.402 35.1397 311.402 35.9064V58.9242H308.442L293.877 37.0591V54.5038C293.877 55.2706 294.005 55.8469 294.263 56.2329C294.52 56.6188 294.87 56.8761 295.318 56.9996C295.765 57.1231 296.26 57.19 296.795 57.19H297.484V58.919H287.726L287.721 58.9242Z" fill="#8F5924"/>
<path d="M93.037 72.0003C90.1342 71.9231 87.8181 70.6006 85.7852 68.6966C84.5654 67.5542 83.4022 66.3552 82.9544 64.6571C82.5169 63.0258 83.2375 61.4923 84.7198 60.7102C85.1727 60.4734 85.5999 60.0618 85.8624 59.6244C86.4954 58.5592 87.288 57.7821 88.5284 57.4837C88.8166 57.4168 89.1718 57.1543 89.2747 56.8919C90.0879 54.8284 91.8893 53.8249 93.8965 54.6791C97.314 56.1406 99.9338 58.4974 100.876 62.2488C101.91 66.3604 99.2132 70.6006 94.9619 71.7019C94.3392 71.8614 93.6804 71.9026 93.037 72.0003ZM87.4733 60.8131C87.7615 61.091 88.0086 61.3482 88.2762 61.5747C89.0225 62.2128 89.8306 62.784 90.4996 63.489C90.7621 63.7617 90.932 64.5439 90.7621 64.7137C90.4585 65.0173 89.8717 65.1151 89.3982 65.1357C89.1306 65.1459 88.8321 64.8423 88.585 64.6365C87.9828 64.1322 87.3961 63.6125 86.8197 63.0824C86.4028 62.6965 85.9601 62.4237 85.4352 62.82C84.8742 63.2368 84.7815 63.8389 85.1727 64.3792C85.8778 65.3518 86.5623 66.3707 87.4373 67.1786C89.2335 68.8459 91.2923 69.9317 93.9017 69.5817C97.1699 69.1443 99.6456 65.6863 98.6985 62.5575C97.8287 59.6861 95.7082 57.8696 93.0319 56.6963C92.1003 56.2846 91.5084 56.8507 91.0349 57.7049C91.8481 58.4459 92.6562 59.1561 93.4333 59.8919C93.9017 60.3396 94.298 60.8542 93.8091 61.5129C93.423 62.0327 92.5944 62.0275 91.9665 61.5284C91.5084 61.163 91.0606 60.7771 90.6232 60.3808C89.2593 59.1509 88.7034 59.2075 87.4733 60.8079V60.8131Z" fill="#8F5924"/>
<path d="M67.7409 69.9469C64.3851 69.7565 61.0243 69.6021 57.6685 69.35C56.2738 69.2471 54.8893 68.9692 53.5151 68.7016C52.6092 68.5266 52.1769 67.94 52.3725 67.2916C52.6195 66.4683 53.232 66.3139 54.004 66.4683C60.3295 67.7547 66.727 67.8474 73.1347 67.4151C75.8265 67.235 78.5029 66.7873 81.1895 66.4425C82.049 66.3293 82.7284 66.7101 82.785 67.4717C82.8571 68.3671 82.2292 68.6296 81.4983 68.7685C76.9537 69.6279 72.3627 69.88 67.7409 69.9469Z" fill="#8F5924"/>
</g>
<path d="M48.6456 109V108.19H49.0236C49.2636 108.19 49.4796 108.166 49.6716 108.118C49.8756 108.058 50.0376 107.944 50.1576 107.776C50.2896 107.608 50.3556 107.356 50.3556 107.02V98.146C50.3556 97.798 50.2896 97.54 50.1576 97.372C50.0376 97.204 49.8756 97.096 49.6716 97.048C49.4796 96.988 49.2636 96.958 49.0236 96.958H48.6456V96.148H53.0556L56.5656 105.994L60.0396 96.148H64.3416V96.958H63.9636C63.7236 96.958 63.5016 96.988 63.2976 97.048C63.0936 97.108 62.9316 97.228 62.8116 97.408C62.6916 97.576 62.6316 97.846 62.6316 98.218V106.93C62.6316 107.29 62.6916 107.56 62.8116 107.74C62.9316 107.92 63.0936 108.04 63.2976 108.1C63.5016 108.16 63.7236 108.19 63.9636 108.19H64.3416V109H59.2836V108.19H59.3736C59.6256 108.19 59.8416 108.166 60.0216 108.118C60.2136 108.058 60.3576 107.95 60.4536 107.794C60.5496 107.638 60.6036 107.404 60.6156 107.092V97.624L56.6376 109H55.5936L51.5256 97.642V106.93C51.5256 107.29 51.5736 107.56 51.6696 107.74C51.7776 107.92 51.9276 108.04 52.1196 108.1C52.3236 108.16 52.5576 108.19 52.8216 108.19H52.8936V109H48.6456ZM68.6505 109.18C68.1225 109.18 67.6425 109.078 67.2105 108.874C66.7905 108.658 66.4605 108.34 66.2205 107.92C65.9805 107.488 65.8605 106.942 65.8605 106.282C65.8605 105.322 66.1965 104.614 66.8685 104.158C67.5405 103.69 68.5665 103.432 69.9465 103.384L71.4225 103.33V102.286C71.4225 101.854 71.3865 101.476 71.3145 101.152C71.2545 100.828 71.1165 100.576 70.9005 100.396C70.6845 100.204 70.3545 100.108 69.9105 100.108C69.4905 100.108 69.1665 100.192 68.9385 100.36C68.7225 100.528 68.5725 100.762 68.4885 101.062C68.4165 101.35 68.3805 101.686 68.3805 102.07C67.8045 102.07 67.3665 101.986 67.0665 101.818C66.7665 101.638 66.6165 101.338 66.6165 100.918C66.6165 100.486 66.7665 100.144 67.0665 99.892C67.3785 99.64 67.7865 99.454 68.2905 99.334C68.8065 99.214 69.3705 99.154 69.9825 99.154C71.1225 99.154 71.9745 99.388 72.5385 99.856C73.1145 100.324 73.4025 101.122 73.4025 102.25V106.894C73.4025 107.23 73.4385 107.494 73.5105 107.686C73.5825 107.866 73.7025 107.998 73.8705 108.082C74.0385 108.154 74.2545 108.19 74.5185 108.19H74.5725V109H71.8905L71.5845 107.542H71.4225C71.1705 107.866 70.9245 108.154 70.6845 108.406C70.4445 108.646 70.1685 108.838 69.8565 108.982C69.5445 109.114 69.1425 109.18 68.6505 109.18ZM69.2265 108.01C69.6825 108.01 70.0725 107.914 70.3965 107.722C70.7205 107.518 70.9725 107.23 71.1525 106.858C71.3325 106.486 71.4225 106.054 71.4225 105.562V104.14L70.3605 104.194C69.7365 104.218 69.2445 104.32 68.8845 104.5C68.5245 104.668 68.2665 104.908 68.1105 105.22C67.9665 105.532 67.8945 105.916 67.8945 106.372C67.8945 106.732 67.9425 107.038 68.0385 107.29C68.1345 107.53 68.2785 107.71 68.4705 107.83C68.6745 107.95 68.9265 108.01 69.2265 108.01ZM79.9229 109.18C79.1309 109.18 78.4589 109.006 77.9069 108.658C77.3669 108.31 76.9529 107.77 76.6649 107.038C76.3889 106.294 76.2509 105.346 76.2509 104.194C76.2509 103.03 76.3889 102.082 76.6649 101.35C76.9529 100.606 77.3669 100.054 77.9069 99.694C78.4589 99.334 79.1249 99.154 79.9049 99.154C80.5889 99.154 81.1469 99.298 81.5789 99.586C82.0229 99.874 82.3769 100.246 82.6409 100.702H82.7489C82.7249 100.498 82.7009 100.276 82.6769 100.036C82.6649 99.796 82.6529 99.556 82.6409 99.316C82.6409 99.076 82.6409 98.86 82.6409 98.668V97.318C82.6409 96.97 82.5689 96.712 82.4249 96.544C82.2929 96.376 82.1129 96.268 81.8849 96.22C81.6689 96.16 81.4289 96.13 81.1649 96.13H81.0209V95.32H84.6209V106.948C84.6209 107.308 84.6869 107.578 84.8189 107.758C84.9629 107.938 85.1429 108.058 85.3589 108.118C85.5869 108.166 85.8329 108.19 86.0969 108.19H86.2229V109H83.0549L82.7669 107.434H82.6769C82.4129 107.974 82.0649 108.4 81.6329 108.712C81.2009 109.024 80.6309 109.18 79.9229 109.18ZM80.3549 107.974C81.2189 107.974 81.8129 107.662 82.1369 107.038C82.4729 106.414 82.6409 105.46 82.6409 104.176C82.6409 103.36 82.5689 102.67 82.4249 102.106C82.2809 101.53 82.0409 101.098 81.7049 100.81C81.3809 100.51 80.9249 100.36 80.3369 100.36C79.8449 100.36 79.4489 100.51 79.1489 100.81C78.8489 101.11 78.6269 101.542 78.4829 102.106C78.3389 102.67 78.2669 103.372 78.2669 104.212C78.2669 105.052 78.3389 105.754 78.4829 106.318C78.6269 106.87 78.8489 107.284 79.1489 107.56C79.4609 107.836 79.8629 107.974 80.3549 107.974ZM91.7853 109.18C90.4173 109.18 89.3553 108.748 88.5993 107.884C87.8553 107.02 87.4833 105.808 87.4833 104.248C87.4833 102.556 87.8433 101.284 88.5633 100.432C89.2833 99.58 90.2973 99.154 91.6053 99.154C92.8053 99.154 93.7473 99.52 94.4313 100.252C95.1273 100.972 95.4753 102.046 95.4753 103.474V104.32H89.5173C89.5413 105.172 89.6493 105.874 89.8413 106.426C90.0453 106.966 90.3333 107.362 90.7053 107.614C91.0893 107.866 91.5573 107.992 92.1093 107.992C92.5293 107.992 92.9013 107.932 93.2253 107.812C93.5613 107.68 93.8493 107.518 94.0893 107.326C94.3413 107.122 94.5393 106.906 94.6833 106.678C94.7913 106.726 94.8813 106.81 94.9533 106.93C95.0253 107.05 95.0613 107.194 95.0613 107.362C95.0613 107.626 94.9413 107.902 94.7013 108.19C94.4733 108.466 94.1133 108.7 93.6213 108.892C93.1413 109.084 92.5293 109.18 91.7853 109.18ZM93.4053 103.294C93.4053 102.67 93.3453 102.124 93.2253 101.656C93.1053 101.188 92.9133 100.828 92.6493 100.576C92.3853 100.312 92.0313 100.18 91.5873 100.18C91.1793 100.18 90.8253 100.3 90.5253 100.54C90.2373 100.78 90.0093 101.134 89.8413 101.602C89.6853 102.058 89.5893 102.622 89.5533 103.294H93.4053ZM107.62 109.18C106.924 109.18 106.354 109.036 105.91 108.748C105.478 108.448 105.13 108.064 104.866 107.596H104.74L104.362 109H101.338V108.19H101.464C101.728 108.19 101.968 108.16 102.184 108.1C102.412 108.04 102.592 107.92 102.724 107.74C102.856 107.548 102.922 107.272 102.922 106.912V97.354C102.922 96.994 102.85 96.73 102.706 96.562C102.574 96.382 102.4 96.268 102.184 96.22C101.968 96.16 101.728 96.13 101.464 96.13H101.338V95.32H104.902V98.56C104.902 98.764 104.896 99.022 104.884 99.334C104.884 99.634 104.872 99.928 104.848 100.216C104.836 100.504 104.824 100.72 104.812 100.864H104.902C105.166 100.336 105.514 99.922 105.946 99.622C106.378 99.31 106.942 99.154 107.638 99.154C108.814 99.154 109.714 99.556 110.338 100.36C110.974 101.164 111.292 102.43 111.292 104.158C111.292 105.31 111.148 106.258 110.86 107.002C110.584 107.746 110.17 108.298 109.618 108.658C109.078 109.006 108.412 109.18 107.62 109.18ZM107.188 107.974C107.68 107.974 108.076 107.83 108.376 107.542C108.688 107.242 108.91 106.81 109.042 106.246C109.186 105.67 109.258 104.968 109.258 104.14C109.258 103.3 109.186 102.604 109.042 102.052C108.91 101.488 108.688 101.068 108.376 100.792C108.076 100.504 107.674 100.36 107.17 100.36C106.306 100.36 105.712 100.672 105.388 101.296C105.064 101.92 104.902 102.874 104.902 104.158C104.902 104.974 104.968 105.67 105.1 106.246C105.244 106.81 105.484 107.242 105.82 107.542C106.156 107.83 106.612 107.974 107.188 107.974ZM112.525 112.42C113.137 112.42 113.665 112.33 114.109 112.15C114.553 111.982 114.931 111.742 115.243 111.43C115.555 111.13 115.813 110.77 116.017 110.35C116.233 109.93 116.413 109.468 116.557 108.964L113.245 101.098C113.149 100.846 113.041 100.66 112.921 100.54C112.813 100.408 112.687 100.318 112.543 100.27C112.411 100.222 112.231 100.198 112.003 100.198H111.949V99.352H116.485V100.162H116.431C116.083 100.162 115.813 100.228 115.621 100.36C115.441 100.48 115.351 100.684 115.351 100.972C115.351 101.068 115.363 101.176 115.387 101.296C115.423 101.404 115.465 101.524 115.513 101.656L116.809 104.878C116.893 105.082 116.971 105.298 117.043 105.526C117.127 105.754 117.205 105.976 117.277 106.192C117.349 106.408 117.409 106.612 117.457 106.804C117.517 106.996 117.553 107.158 117.565 107.29C117.637 106.966 117.733 106.63 117.853 106.282C117.985 105.922 118.099 105.598 118.195 105.31L119.401 101.8C119.461 101.668 119.503 101.53 119.527 101.386C119.551 101.23 119.563 101.104 119.563 101.008C119.563 100.708 119.461 100.492 119.257 100.36C119.053 100.228 118.753 100.162 118.357 100.162H118.303V99.352H122.137V100.162H122.083C121.855 100.162 121.663 100.204 121.507 100.288C121.351 100.36 121.213 100.498 121.093 100.702C120.973 100.894 120.847 101.176 120.715 101.548L117.979 109.054C117.667 109.93 117.367 110.644 117.079 111.196C116.791 111.748 116.467 112.18 116.107 112.492C115.747 112.804 115.297 113.02 114.757 113.14C114.217 113.26 113.539 113.32 112.723 113.32H112.525V112.42ZM129.536 109V108.19H130.04C130.28 108.19 130.502 108.166 130.706 108.118C130.91 108.058 131.072 107.944 131.192 107.776C131.312 107.596 131.372 107.338 131.372 107.002V97.102H129.716C129.368 97.102 129.092 97.168 128.888 97.3C128.684 97.42 128.534 97.588 128.438 97.804C128.342 98.02 128.276 98.26 128.24 98.524L128.132 99.388H127.124L127.214 96.148H137.654L137.744 99.388H136.736L136.628 98.524C136.604 98.26 136.538 98.02 136.43 97.804C136.334 97.588 136.184 97.42 135.98 97.3C135.776 97.168 135.494 97.102 135.134 97.102H133.478V106.93C133.478 107.29 133.532 107.56 133.64 107.74C133.76 107.92 133.922 108.04 134.126 108.1C134.33 108.16 134.552 108.19 134.792 108.19H135.296V109H129.536ZM138.429 109V108.19H138.663C138.903 108.19 139.131 108.166 139.347 108.118C139.563 108.058 139.737 107.944 139.869 107.776C140.013 107.596 140.085 107.338 140.085 107.002V101.35C140.085 101.002 140.013 100.744 139.869 100.576C139.737 100.408 139.563 100.3 139.347 100.252C139.131 100.192 138.903 100.162 138.663 100.162H138.573V99.352H142.065V106.93C142.065 107.29 142.131 107.56 142.263 107.74C142.395 107.92 142.569 108.04 142.785 108.1C143.013 108.16 143.247 108.19 143.487 108.19H143.721V109H138.429ZM141.003 97.606C140.667 97.606 140.385 97.516 140.157 97.336C139.941 97.156 139.833 96.856 139.833 96.436C139.833 96.004 139.947 95.704 140.175 95.536C140.403 95.356 140.679 95.266 141.003 95.266C141.315 95.266 141.585 95.356 141.813 95.536C142.053 95.704 142.173 96.004 142.173 96.436C142.173 96.856 142.053 97.156 141.813 97.336C141.585 97.516 141.315 97.606 141.003 97.606ZM144.443 109V108.19H144.623C144.899 108.19 145.139 108.16 145.343 108.1C145.547 108.04 145.709 107.92 145.829 107.74C145.949 107.548 146.009 107.272 146.009 106.912V101.35C146.009 101.002 145.949 100.744 145.829 100.576C145.721 100.396 145.559 100.282 145.343 100.234C145.139 100.174 144.905 100.144 144.641 100.144H144.587V99.352H147.683L147.917 100.756H148.007C148.247 100.3 148.505 99.958 148.781 99.73C149.057 99.502 149.357 99.352 149.681 99.28C150.005 99.196 150.359 99.154 150.743 99.154C151.139 99.154 151.511 99.208 151.859 99.316C152.207 99.424 152.507 99.592 152.759 99.82C153.023 100.048 153.227 100.36 153.371 100.756H153.533C153.773 100.3 154.037 99.958 154.325 99.73C154.625 99.502 154.943 99.352 155.279 99.28C155.627 99.196 155.987 99.154 156.359 99.154C157.283 99.154 158.003 99.436 158.519 100C159.047 100.552 159.311 101.44 159.311 102.664V106.894C159.311 107.266 159.365 107.548 159.473 107.74C159.581 107.92 159.737 108.04 159.941 108.1C160.145 108.16 160.379 108.19 160.643 108.19H160.697V109H157.331V102.862C157.331 102.082 157.199 101.482 156.935 101.062C156.671 100.63 156.215 100.414 155.567 100.414C155.099 100.414 154.727 100.534 154.451 100.774C154.175 101.014 153.977 101.338 153.857 101.746C153.737 102.154 153.677 102.592 153.677 103.06V106.894C153.677 107.266 153.731 107.548 153.839 107.74C153.959 107.92 154.115 108.04 154.307 108.1C154.511 108.16 154.745 108.19 155.009 108.19H155.063V109H151.697V102.862C151.697 102.082 151.565 101.482 151.301 101.062C151.037 100.63 150.581 100.414 149.933 100.414C149.453 100.414 149.069 100.546 148.781 100.81C148.493 101.074 148.289 101.428 148.169 101.872C148.049 102.316 147.989 102.79 147.989 103.294V107.002C147.989 107.338 148.055 107.596 148.187 107.776C148.319 107.944 148.487 108.058 148.691 108.118C148.907 108.166 149.147 108.19 149.411 108.19H149.465V109H144.443ZM166.44 109.18C165.072 109.18 164.01 108.748 163.254 107.884C162.51 107.02 162.138 105.808 162.138 104.248C162.138 102.556 162.498 101.284 163.218 100.432C163.938 99.58 164.952 99.154 166.26 99.154C167.46 99.154 168.402 99.52 169.086 100.252C169.782 100.972 170.13 102.046 170.13 103.474V104.32H164.172C164.196 105.172 164.304 105.874 164.496 106.426C164.7 106.966 164.988 107.362 165.36 107.614C165.744 107.866 166.212 107.992 166.764 107.992C167.184 107.992 167.556 107.932 167.88 107.812C168.216 107.68 168.504 107.518 168.744 107.326C168.996 107.122 169.194 106.906 169.338 106.678C169.446 106.726 169.536 106.81 169.608 106.93C169.68 107.05 169.716 107.194 169.716 107.362C169.716 107.626 169.596 107.902 169.356 108.19C169.128 108.466 168.768 108.7 168.276 108.892C167.796 109.084 167.184 109.18 166.44 109.18ZM168.06 103.294C168.06 102.67 168 102.124 167.88 101.656C167.76 101.188 167.568 100.828 167.304 100.576C167.04 100.312 166.686 100.18 166.242 100.18C165.834 100.18 165.48 100.3 165.18 100.54C164.892 100.78 164.664 101.134 164.496 101.602C164.34 102.058 164.244 102.622 164.208 103.294H168.06ZM171.604 110.962C171.988 110.83 172.3 110.686 172.54 110.53C172.792 110.386 172.978 110.218 173.098 110.026C173.218 109.846 173.278 109.642 173.278 109.414C173.278 109.27 173.23 109.15 173.134 109.054C173.05 108.97 172.942 108.898 172.81 108.838C172.69 108.766 172.564 108.688 172.432 108.604C172.3 108.508 172.186 108.388 172.09 108.244C172.006 108.1 171.964 107.908 171.964 107.668C171.964 107.308 172.078 107.038 172.306 106.858C172.534 106.666 172.822 106.57 173.17 106.57C173.578 106.57 173.92 106.72 174.196 107.02C174.484 107.308 174.628 107.716 174.628 108.244C174.628 109.012 174.4 109.714 173.944 110.35C173.488 110.986 172.708 111.46 171.604 111.772V110.962ZM181.009 109V108.19H181.387C181.627 108.19 181.843 108.166 182.035 108.118C182.239 108.058 182.401 107.944 182.521 107.776C182.653 107.608 182.719 107.356 182.719 107.02V98.146C182.719 97.798 182.653 97.54 182.521 97.372C182.401 97.204 182.239 97.096 182.035 97.048C181.843 96.988 181.627 96.958 181.387 96.958H181.009V96.148H186.121C187.189 96.148 188.071 96.28 188.767 96.544C189.463 96.796 189.979 97.174 190.315 97.678C190.663 98.182 190.837 98.818 190.837 99.586C190.837 100.222 190.705 100.762 190.441 101.206C190.189 101.638 189.865 101.992 189.469 102.268C189.073 102.532 188.665 102.742 188.245 102.898L190.621 106.732C190.777 106.984 190.927 107.2 191.071 107.38C191.215 107.56 191.359 107.71 191.503 107.83C191.647 107.95 191.797 108.04 191.953 108.1C192.121 108.16 192.295 108.19 192.475 108.19H192.547V109H192.187C191.635 109 191.167 108.982 190.783 108.946C190.411 108.898 190.099 108.82 189.847 108.712C189.595 108.592 189.367 108.424 189.163 108.208C188.971 107.992 188.773 107.716 188.569 107.38L186.229 103.348H184.807V107.02C184.807 107.356 184.867 107.608 184.987 107.776C185.119 107.944 185.281 108.058 185.473 108.118C185.677 108.166 185.899 108.19 186.139 108.19H186.517V109H181.009ZM185.995 102.448C186.667 102.448 187.189 102.346 187.561 102.142C187.933 101.938 188.197 101.632 188.353 101.224C188.521 100.816 188.605 100.306 188.605 99.694C188.605 99.058 188.515 98.548 188.335 98.164C188.167 97.78 187.891 97.504 187.507 97.336C187.123 97.156 186.613 97.066 185.977 97.066H184.807V102.448H185.995ZM197.694 109.18C196.326 109.18 195.264 108.748 194.508 107.884C193.764 107.02 193.392 105.808 193.392 104.248C193.392 102.556 193.752 101.284 194.472 100.432C195.192 99.58 196.206 99.154 197.514 99.154C198.714 99.154 199.656 99.52 200.34 100.252C201.036 100.972 201.384 102.046 201.384 103.474V104.32H195.426C195.45 105.172 195.558 105.874 195.75 106.426C195.954 106.966 196.242 107.362 196.614 107.614C196.998 107.866 197.465 107.992 198.018 107.992C198.438 107.992 198.81 107.932 199.134 107.812C199.47 107.68 199.758 107.518 199.998 107.326C200.25 107.122 200.448 106.906 200.592 106.678C200.7 106.726 200.79 106.81 200.862 106.93C200.934 107.05 200.97 107.194 200.97 107.362C200.97 107.626 200.85 107.902 200.61 108.19C200.382 108.466 200.022 108.7 199.53 108.892C199.05 109.084 198.438 109.18 197.694 109.18ZM199.314 103.294C199.314 102.67 199.254 102.124 199.134 101.656C199.014 101.188 198.822 100.828 198.558 100.576C198.294 100.312 197.94 100.18 197.496 100.18C197.088 100.18 196.734 100.3 196.434 100.54C196.146 100.78 195.918 101.134 195.75 101.602C195.594 102.058 195.498 102.622 195.462 103.294H199.314ZM205.918 109.18C205.39 109.18 204.91 109.078 204.478 108.874C204.058 108.658 203.728 108.34 203.488 107.92C203.248 107.488 203.128 106.942 203.128 106.282C203.128 105.322 203.464 104.614 204.136 104.158C204.808 103.69 205.834 103.432 207.214 103.384L208.69 103.33V102.286C208.69 101.854 208.654 101.476 208.582 101.152C208.522 100.828 208.384 100.576 208.168 100.396C207.952 100.204 207.622 100.108 207.178 100.108C206.758 100.108 206.434 100.192 206.206 100.36C205.99 100.528 205.84 100.762 205.756 101.062C205.684 101.35 205.648 101.686 205.648 102.07C205.072 102.07 204.634 101.986 204.334 101.818C204.034 101.638 203.884 101.338 203.884 100.918C203.884 100.486 204.034 100.144 204.334 99.892C204.646 99.64 205.054 99.454 205.558 99.334C206.074 99.214 206.638 99.154 207.25 99.154C208.39 99.154 209.242 99.388 209.806 99.856C210.382 100.324 210.67 101.122 210.67 102.25V106.894C210.67 107.23 210.706 107.494 210.778 107.686C210.85 107.866 210.97 107.998 211.138 108.082C211.306 108.154 211.522 108.19 211.786 108.19H211.84V109H209.158L208.852 107.542H208.69C208.438 107.866 208.192 108.154 207.952 108.406C207.712 108.646 207.436 108.838 207.124 108.982C206.812 109.114 206.41 109.18 205.918 109.18ZM206.494 108.01C206.95 108.01 207.34 107.914 207.664 107.722C207.988 107.518 208.24 107.23 208.42 106.858C208.6 106.486 208.69 106.054 208.69 105.562V104.14L207.628 104.194C207.004 104.218 206.512 104.32 206.152 104.5C205.792 104.668 205.534 104.908 205.378 105.22C205.234 105.532 205.162 105.916 205.162 106.372C205.162 106.732 205.21 107.038 205.306 107.29C205.402 107.53 205.546 107.71 205.738 107.83C205.942 107.95 206.194 108.01 206.494 108.01ZM217.19 109.18C216.398 109.18 215.726 109.006 215.174 108.658C214.634 108.31 214.22 107.77 213.932 107.038C213.656 106.294 213.518 105.346 213.518 104.194C213.518 103.03 213.656 102.082 213.932 101.35C214.22 100.606 214.634 100.054 215.174 99.694C215.726 99.334 216.392 99.154 217.172 99.154C217.856 99.154 218.414 99.298 218.846 99.586C219.29 99.874 219.644 100.246 219.908 100.702H220.016C219.992 100.498 219.968 100.276 219.944 100.036C219.932 99.796 219.92 99.556 219.908 99.316C219.908 99.076 219.908 98.86 219.908 98.668V97.318C219.908 96.97 219.836 96.712 219.692 96.544C219.56 96.376 219.38 96.268 219.152 96.22C218.936 96.16 218.696 96.13 218.432 96.13H218.288V95.32H221.888V106.948C221.888 107.308 221.954 107.578 222.086 107.758C222.23 107.938 222.41 108.058 222.626 108.118C222.854 108.166 223.1 108.19 223.364 108.19H223.49V109H220.322L220.034 107.434H219.944C219.68 107.974 219.332 108.4 218.9 108.712C218.468 109.024 217.898 109.18 217.19 109.18ZM217.622 107.974C218.486 107.974 219.08 107.662 219.404 107.038C219.74 106.414 219.908 105.46 219.908 104.176C219.908 103.36 219.836 102.67 219.692 102.106C219.548 101.53 219.308 101.098 218.972 100.81C218.648 100.51 218.192 100.36 217.604 100.36C217.112 100.36 216.716 100.51 216.416 100.81C216.116 101.11 215.894 101.542 215.75 102.106C215.606 102.67 215.534 103.372 215.534 104.212C215.534 105.052 215.606 105.754 215.75 106.318C215.894 106.87 216.116 107.284 216.416 107.56C216.728 107.836 217.13 107.974 217.622 107.974ZM224.427 112.42C225.039 112.42 225.567 112.33 226.011 112.15C226.455 111.982 226.833 111.742 227.145 111.43C227.457 111.13 227.715 110.77 227.919 110.35C228.135 109.93 228.315 109.468 228.459 108.964L225.147 101.098C225.051 100.846 224.943 100.66 224.823 100.54C224.715 100.408 224.589 100.318 224.445 100.27C224.313 100.222 224.133 100.198 223.905 100.198H223.851V99.352H228.387V100.162H228.333C227.985 100.162 227.715 100.228 227.523 100.36C227.343 100.48 227.253 100.684 227.253 100.972C227.253 101.068 227.265 101.176 227.289 101.296C227.325 101.404 227.367 101.524 227.415 101.656L228.711 104.878C228.795 105.082 228.873 105.298 228.945 105.526C229.029 105.754 229.107 105.976 229.179 106.192C229.251 106.408 229.311 106.612 229.359 106.804C229.419 106.996 229.455 107.158 229.467 107.29C229.539 106.966 229.635 106.63 229.755 106.282C229.887 105.922 230.001 105.598 230.097 105.31L231.303 101.8C231.363 101.668 231.405 101.53 231.429 101.386C231.453 101.23 231.465 101.104 231.465 101.008C231.465 100.708 231.363 100.492 231.159 100.36C230.955 100.228 230.655 100.162 230.259 100.162H230.205V99.352H234.039V100.162H233.985C233.757 100.162 233.565 100.204 233.409 100.288C233.253 100.36 233.115 100.498 232.995 100.702C232.875 100.894 232.749 101.176 232.617 101.548L229.881 109.054C229.569 109.93 229.269 110.644 228.981 111.196C228.693 111.748 228.369 112.18 228.009 112.492C227.649 112.804 227.199 113.02 226.659 113.14C226.119 113.26 225.441 113.32 224.625 113.32H224.427V112.42ZM239.171 109V108.19H239.441C239.693 108.19 239.927 108.16 240.143 108.1C240.359 108.04 240.533 107.92 240.665 107.74C240.797 107.56 240.863 107.29 240.863 106.93V100.306H239.243V99.352H240.863V98.524C240.863 97.432 241.151 96.598 241.727 96.022C242.303 95.434 243.125 95.14 244.193 95.14C244.853 95.14 245.375 95.2 245.759 95.32C246.143 95.428 246.419 95.578 246.587 95.77C246.755 95.95 246.839 96.166 246.839 96.418C246.839 96.646 246.767 96.838 246.623 96.994C246.491 97.15 246.299 97.27 246.047 97.354C245.807 97.438 245.513 97.48 245.165 97.48C245.165 97.252 245.129 97.024 245.057 96.796C244.985 96.568 244.871 96.382 244.715 96.238C244.559 96.094 244.337 96.022 244.049 96.022C243.593 96.022 243.275 96.214 243.095 96.598C242.927 96.97 242.843 97.54 242.843 98.308V99.352H245.363V100.306H242.843V106.93C242.843 107.29 242.909 107.56 243.041 107.74C243.185 107.92 243.365 108.04 243.581 108.1C243.797 108.16 244.025 108.19 244.265 108.19H245.003V109H239.171ZM250.797 109.18C249.465 109.18 248.415 108.766 247.647 107.938C246.879 107.11 246.495 105.85 246.495 104.158C246.495 102.466 246.861 101.212 247.593 100.396C248.325 99.568 249.411 99.154 250.851 99.154C252.183 99.154 253.233 99.568 254.001 100.396C254.769 101.212 255.153 102.466 255.153 104.158C255.153 105.85 254.781 107.11 254.037 107.938C253.305 108.766 252.225 109.18 250.797 109.18ZM250.833 108.19C251.397 108.19 251.847 108.04 252.183 107.74C252.519 107.44 252.759 106.99 252.903 106.39C253.047 105.778 253.119 105.034 253.119 104.158C253.119 103.27 253.041 102.532 252.885 101.944C252.741 101.356 252.501 100.912 252.165 100.612C251.829 100.312 251.379 100.162 250.815 100.162C250.251 100.162 249.801 100.312 249.465 100.612C249.129 100.912 248.889 101.356 248.745 101.944C248.601 102.532 248.529 103.27 248.529 104.158C248.529 105.034 248.601 105.778 248.745 106.39C248.901 106.99 249.147 107.44 249.483 107.74C249.819 108.04 250.269 108.19 250.833 108.19ZM256.627 109V108.19H256.681C256.957 108.19 257.203 108.16 257.419 108.1C257.647 108.04 257.821 107.92 257.941 107.74C258.073 107.548 258.139 107.266 258.139 106.894V101.386C258.139 101.026 258.073 100.762 257.941 100.594C257.809 100.414 257.635 100.3 257.419 100.252C257.215 100.192 256.981 100.162 256.717 100.162H256.663V99.352H259.669L260.011 101.026H260.101C260.257 100.666 260.425 100.348 260.605 100.072C260.797 99.784 261.043 99.562 261.343 99.406C261.655 99.238 262.069 99.154 262.585 99.154C263.257 99.154 263.755 99.274 264.079 99.514C264.403 99.754 264.565 100.09 264.565 100.522C264.565 100.942 264.415 101.284 264.115 101.548C263.827 101.8 263.365 101.926 262.729 101.926C262.729 101.59 262.699 101.32 262.639 101.116C262.579 100.9 262.483 100.744 262.351 100.648C262.219 100.54 262.033 100.486 261.793 100.486C261.469 100.486 261.193 100.612 260.965 100.864C260.749 101.116 260.581 101.434 260.461 101.818C260.341 102.202 260.251 102.598 260.191 103.006C260.143 103.414 260.119 103.774 260.119 104.086V106.984C260.119 107.332 260.185 107.596 260.317 107.776C260.449 107.944 260.617 108.058 260.821 108.118C261.037 108.166 261.277 108.19 261.541 108.19H262.063V109H256.627ZM272.398 109V108.19H272.938C273.178 108.19 273.4 108.166 273.604 108.118C273.808 108.07 273.97 107.962 274.09 107.794C274.222 107.614 274.288 107.356 274.288 107.02V103.852L270.958 97.912C270.838 97.684 270.718 97.504 270.598 97.372C270.49 97.228 270.364 97.126 270.22 97.066C270.076 96.994 269.896 96.958 269.68 96.958H269.446V96.148H274.702V96.958H274.126C273.802 96.958 273.574 97.024 273.442 97.156C273.322 97.276 273.262 97.426 273.262 97.606C273.262 97.762 273.292 97.93 273.352 98.11C273.424 98.278 273.496 98.428 273.568 98.56L274.9 101.044C275.008 101.224 275.104 101.404 275.188 101.584C275.272 101.764 275.35 101.938 275.422 102.106C275.494 102.274 275.56 102.436 275.62 102.592C275.68 102.748 275.734 102.898 275.782 103.042C275.89 102.778 276.04 102.46 276.232 102.088C276.424 101.716 276.622 101.338 276.826 100.954L277.942 98.848C278.074 98.632 278.158 98.434 278.194 98.254C278.242 98.062 278.266 97.9 278.266 97.768C278.266 97.492 278.17 97.288 277.978 97.156C277.786 97.024 277.51 96.958 277.15 96.958H276.664V96.148H281.146V96.958H280.894C280.714 96.958 280.552 97 280.408 97.084C280.264 97.168 280.114 97.312 279.958 97.516C279.814 97.72 279.64 98.002 279.436 98.362L276.394 103.87V106.948C276.394 107.308 276.454 107.578 276.574 107.758C276.694 107.938 276.856 108.058 277.06 108.118C277.276 108.166 277.504 108.19 277.744 108.19H278.284V109H272.398ZM285.092 109.18C283.76 109.18 282.71 108.766 281.942 107.938C281.174 107.11 280.79 105.85 280.79 104.158C280.79 102.466 281.156 101.212 281.888 100.396C282.62 99.568 283.706 99.154 285.146 99.154C286.478 99.154 287.528 99.568 288.296 100.396C289.064 101.212 289.448 102.466 289.448 104.158C289.448 105.85 289.076 107.11 288.332 107.938C287.6 108.766 286.52 109.18 285.092 109.18ZM285.128 108.19C285.692 108.19 286.142 108.04 286.478 107.74C286.814 107.44 287.054 106.99 287.198 106.39C287.342 105.778 287.414 105.034 287.414 104.158C287.414 103.27 287.336 102.532 287.18 101.944C287.036 101.356 286.796 100.912 286.46 100.612C286.124 100.312 285.674 100.162 285.11 100.162C284.546 100.162 284.096 100.312 283.76 100.612C283.424 100.912 283.184 101.356 283.04 101.944C282.896 102.532 282.824 103.27 282.824 104.158C282.824 105.034 282.896 105.778 283.04 106.39C283.196 106.99 283.442 107.44 283.778 107.74C284.114 108.04 284.564 108.19 285.128 108.19ZM295.242 109.18C294.294 109.18 293.562 108.898 293.046 108.334C292.542 107.77 292.29 106.87 292.29 105.634V101.404C292.29 101.044 292.224 100.78 292.092 100.612C291.972 100.432 291.804 100.312 291.588 100.252C291.384 100.192 291.15 100.162 290.886 100.162H290.832V99.352H294.27V105.436C294.27 105.952 294.318 106.396 294.414 106.768C294.522 107.14 294.702 107.428 294.954 107.632C295.218 107.824 295.572 107.92 296.016 107.92C296.496 107.92 296.892 107.8 297.204 107.56C297.516 107.32 297.744 106.984 297.888 106.552C298.032 106.12 298.104 105.622 298.104 105.058V101.422C298.104 101.05 298.038 100.774 297.906 100.594C297.786 100.414 297.618 100.3 297.402 100.252C297.186 100.192 296.946 100.162 296.682 100.162H296.628V99.352H300.084V107.002C300.084 107.35 300.144 107.614 300.264 107.794C300.396 107.962 300.57 108.07 300.786 108.118C301.002 108.166 301.236 108.19 301.488 108.19H301.56V109H298.5L298.23 107.596H298.14C297.96 107.92 297.756 108.19 297.528 108.406C297.312 108.61 297.084 108.772 296.844 108.892C296.604 109 296.346 109.072 296.07 109.108C295.806 109.156 295.53 109.18 295.242 109.18Z" fill="white"/>
<defs>
<clipPath id="clip0_162_850">
<rect width="280.911" height="64" fill="white" transform="translate(34.0444 8)"/>
</clipPath>
</defs>
</svg>
