<svg width="147" height="90" viewBox="0 0 147 90" fill="none" xmlns="http://www.w3.org/2000/svg">
<g clip-path="url(#clip0_627_337)">
<path d="M64.6078 20.4864C63.0693 19.7172 61.9251 18.572 61.3938 16.8969C60.9738 15.585 60.9909 14.2859 61.5095 12.9954C61.7366 12.4356 62.1008 12.1194 62.7051 12.3416C63.3093 12.5595 63.4036 13.004 63.1679 13.5851C62.178 16.0209 63.8536 18.8113 66.3777 19.0592C67.2176 19.1404 68.1475 18.8797 68.9489 18.5592C69.7417 18.243 70.3631 18.1105 71.1559 18.5977C72.2958 19.2942 73.5429 19.3284 74.7128 18.5934C75.5013 18.0977 76.1912 18.1575 76.9883 18.619C78.7153 19.6232 80.7895 19.1745 82.0365 17.6063C83.305 16.0081 83.2879 13.8202 81.9937 12.3673C80.5452 10.7434 78.4754 10.346 76.7869 11.4485C76.0927 11.9015 75.5099 11.9228 74.8371 11.4784C73.4614 10.5682 72.0644 10.6238 70.7145 11.5211C70.1874 11.8716 69.7289 11.8673 69.206 11.5511C67.3933 10.4657 65.7006 10.581 64.1536 12.0767C64.0807 12.1493 63.9693 12.1835 63.8707 12.2391C63.695 12.0895 63.5322 11.957 63.3693 11.816C62.8465 11.3588 62.8379 10.9656 63.3308 10.4443C64.7235 8.98711 67.2519 8.5726 69.1418 9.54263C69.6174 9.78621 69.9646 9.79903 70.4745 9.55118C71.9958 8.81191 73.5771 8.82045 75.1027 9.58537C75.5827 9.82467 75.9555 9.84176 76.4612 9.60246C79.4224 8.21793 82.7265 9.47426 84.2049 12.4954C85.5977 15.35 84.4749 18.7729 81.6423 20.23C81.2394 20.4394 81.1709 20.6232 81.2737 21.0462C81.5309 22.1231 81.7623 23.2128 81.9251 24.3067C82.0622 25.2297 81.8094 25.4648 80.9352 25.7553C80.6952 25.8365 80.4595 26.2211 80.3952 26.5074C79.9153 28.6398 78.9982 30.5029 77.1769 31.8148C73.2215 34.6651 67.7961 32.9216 65.9963 28.2253C65.8034 27.721 65.6277 27.204 65.5163 26.6784C65.4006 26.1143 65.2806 25.7425 64.5478 25.6357C63.8279 25.5331 63.7979 24.7939 63.905 24.1742C64.115 22.9777 64.3592 21.7855 64.6078 20.4822V20.4864ZM78.6939 25.7853H67.1662C67.5133 28.9346 70.0631 31.349 73.0115 31.396C75.8356 31.4388 78.2525 29.0714 78.6939 25.7853ZM80.1167 23.8879C79.8938 22.9435 79.7181 22.0803 79.4696 21.2385C79.4267 21.0975 79.0882 21.0163 78.8739 20.9608C78.0211 20.7343 77.1469 20.5804 76.3198 20.2899C75.9084 20.1446 75.6213 20.0762 75.2056 20.2899C73.7528 21.0377 72.2444 21.1659 70.7616 20.371C70.2045 20.0719 69.7631 20.1317 69.1889 20.3796C68.4818 20.6873 67.6804 20.7727 66.9262 20.9736C66.7162 21.0291 66.3905 21.1317 66.352 21.2727C66.1291 22.1231 65.9706 22.9863 65.782 23.8922H80.1124L80.1167 23.8879Z" fill="#A06313"/>
<path d="M87.5647 40.404C87.3204 41.4552 87.179 42.374 86.8919 43.2372C86.3562 44.8567 84.7449 45.9336 83.2879 45.7498C81.6166 45.5362 80.3352 44.2499 80.2195 42.4552C80.1167 40.8912 80.1981 39.3143 80.1981 37.6264C79.0067 37.417 77.8197 37.2119 76.4569 36.9726C76.4569 37.7332 76.4784 38.3699 76.4527 39.0067C76.4269 39.6818 76.4184 40.3656 76.2898 41.0236C75.8998 43.0021 74.6399 44.0491 72.8101 43.9893C71.1216 43.9294 69.806 42.6646 69.5917 40.7843C69.4503 39.5494 69.4289 38.3016 69.3475 36.9769C68.3061 37.1392 67.269 37.3016 66.2363 37.4597C65.7734 37.5324 65.6492 37.7546 65.6834 38.246C65.7777 39.6519 65.8591 41.0664 65.8034 42.468C65.7391 44.1132 64.5864 45.3482 62.9665 45.7114C61.7194 45.9934 60.2495 45.2712 59.4867 43.9337C59.1825 43.3996 58.9639 42.797 58.8054 42.203C58.6468 41.6133 58.6125 40.9894 58.484 40.1305C57.1212 41.1305 55.7927 41.9766 54.6228 43.0021C53.44 44.0363 52.4073 45.2456 51.3273 46.3908C50.9117 46.831 50.5603 47.3822 49.8532 46.8395C49.3261 46.4293 49.3346 45.9934 49.9432 45.22C51.9487 42.6646 54.3785 40.5878 57.2069 38.9896C61.0638 36.8059 65.2035 35.5282 69.6303 35.1394C76.3969 34.5411 82.7993 35.6906 88.7218 39.0665C91.563 40.686 94.0014 42.8056 96.0626 45.3482C96.4055 45.7712 96.7826 46.2199 96.2383 46.7712C95.7541 47.2583 95.2741 47.1387 94.657 46.5062C93.3071 45.1302 91.9658 43.7414 90.5216 42.4637C89.6388 41.6817 88.576 41.1006 87.5561 40.4083L87.5647 40.404ZM63.995 37.9597C62.7479 38.434 61.638 38.8357 60.5452 39.2844C60.3995 39.3442 60.241 39.6348 60.2624 39.7887C60.4081 40.7715 60.5067 41.7757 60.8152 42.7116C61.1238 43.6346 62.0323 44.1004 62.7779 43.9465C63.5707 43.7842 64.1835 42.9808 64.1664 41.9851C64.1493 40.716 64.0593 39.4511 63.9907 37.9597H63.995ZM81.8737 37.9426C81.8737 39.528 81.8051 40.9083 81.8951 42.28C81.9594 43.2372 82.7008 43.9038 83.5021 43.9679C84.2392 44.0277 85.0277 43.485 85.2677 42.5577C85.4991 41.6518 85.5591 40.6989 85.6663 39.763C85.6791 39.6434 85.5506 39.434 85.4391 39.387C84.3035 38.9084 83.155 38.4554 81.878 37.9383L81.8737 37.9426ZM70.9759 36.8358C71.1216 38.2417 71.1902 39.5408 71.4045 40.8185C71.5544 41.7287 72.1458 42.1731 72.8872 42.186C73.6843 42.2031 74.4428 41.6988 74.5756 40.8142C74.7728 39.5194 74.7985 38.1947 74.9013 36.8316H70.9759V36.8358Z" fill="#A06313"/>
<path d="M51.2459 62.0952C47.4276 62.1764 43.2279 57.3732 45.8034 52.4975C46.8662 50.489 48.4818 49.019 50.4702 47.9721C52.3087 47.0063 54.0528 47.6772 54.927 49.5446C55.0513 49.8139 55.3641 50.066 55.647 50.1771C56.4698 50.5019 57.0612 51.036 57.5326 51.7796C57.7597 52.1385 58.1068 52.4804 58.4796 52.6684C59.7824 53.3265 60.4466 54.7495 59.9624 56.1554C59.2939 58.0997 57.8025 59.3731 56.2084 60.5354C54.8628 61.5183 53.3671 62.1037 51.2459 62.0952ZM53.3543 50.2796C52.8015 49.3951 52.2787 49.1301 51.5801 49.4806C49.8274 50.3651 48.3018 51.5317 47.389 53.3265C45.6191 56.8092 48.5118 59.8645 50.993 60.1551C53.5771 60.4628 57.5326 58.0399 58.2011 55.5486C58.2868 55.2238 58.0725 54.711 57.8282 54.4332C57.464 54.0273 57.1126 54.3862 56.7912 54.6597C56.0884 55.258 55.3899 55.8691 54.6399 56.3989C54.2242 56.6938 53.7657 56.6126 53.4229 56.1554C53.0929 55.7195 53.2943 55.3776 53.6071 55.0828C54.2799 54.4503 54.9827 53.8478 55.6556 53.2154C55.8013 53.0786 55.977 52.8564 55.9598 52.6898C55.8912 51.9633 54.7728 51.4975 54.1942 51.9505C53.5943 52.4205 53.0372 52.9419 52.4501 53.4248C52.073 53.7324 51.6358 53.9461 51.1987 53.5743C50.6888 53.1427 50.8045 52.6513 51.233 52.2368C51.9144 51.5744 52.6258 50.9463 53.3586 50.2711L53.3543 50.2796Z" fill="#A06313"/>
<path d="M94.1899 77.53C94.3442 77.1667 94.4513 76.8078 94.6442 76.4958C95.2056 75.5899 96.0155 75.06 97.104 75.013C97.374 75.0002 97.4811 75.1028 97.464 75.372C97.3997 76.6454 96.5769 77.859 95.2056 78.2308C95.0256 78.2778 94.837 78.3248 94.6527 78.3333C94.4985 78.3419 94.477 78.4103 94.477 78.5385C94.4813 79.2136 94.477 79.8888 94.477 80.564C94.477 80.6409 94.477 80.7221 94.4599 80.7947C94.4256 80.9272 94.3013 81.0127 94.1685 80.9998C94.0228 80.987 93.9499 80.8887 93.9328 80.7563C93.9199 80.6751 93.9285 80.5896 93.9285 80.5042C93.9285 79.876 93.9285 79.2435 93.9285 78.6154C93.9285 78.2906 93.9542 78.359 93.6585 78.3162C92.8786 78.2094 92.2186 77.8804 91.7087 77.2778C91.2416 76.7266 90.9801 76.0856 90.9587 75.3592C90.9502 75.0857 91.0444 74.9959 91.3187 75.0088C92.6172 75.0728 93.7528 75.9831 94.1128 77.2479C94.1385 77.3377 94.1685 77.4317 94.1942 77.53H94.1899ZM96.7226 75.6326C96.6969 75.6326 96.6712 75.6369 96.6455 75.6455C95.7498 75.8762 94.9784 76.6668 94.8113 77.5941C94.7899 77.718 94.8413 77.7394 94.9356 77.7009C95.1927 77.5983 95.467 77.5214 95.7027 77.3847C96.3069 77.0257 96.6669 76.4787 96.8254 75.795C96.8469 75.7053 96.8597 75.6198 96.7183 75.6326H96.7226ZM93.6114 77.6753C93.6028 77.6154 93.6028 77.5941 93.5985 77.577C93.4785 76.7223 92.5872 75.8036 91.7258 75.6455C91.563 75.6156 91.5415 75.6326 91.5844 75.8036C91.7687 76.5258 92.1629 77.1026 92.8272 77.4659C93.0286 77.577 93.26 77.6411 93.4785 77.7137C93.5171 77.7265 93.5685 77.6881 93.6114 77.6795V77.6753Z" fill="#A06313"/>
<path d="M94.2242 74.7354C94.3485 74.197 94.5327 73.7098 94.8756 73.2953C95.4455 72.6073 96.1741 72.2056 97.0783 72.1672C97.3954 72.1544 97.494 72.2569 97.4597 72.5774C97.3482 73.6628 96.8854 74.5517 95.8998 75.0815C94.6699 75.7396 93.4271 75.7054 92.2572 74.9405C91.4001 74.3765 90.9973 73.5133 90.9416 72.4962C90.9287 72.274 91.0444 72.1629 91.2758 72.1672C92.0729 72.18 92.7329 72.5176 93.2943 73.056C93.7271 73.4705 93.9885 73.9876 94.1342 74.5688C94.1471 74.6115 94.1556 74.6542 94.1728 74.697C94.1728 74.7055 94.1899 74.714 94.2199 74.7354H94.2242ZM91.5672 72.7654C91.563 72.8082 91.5544 72.8253 91.5587 72.8424C91.7087 73.8038 92.4415 74.6072 93.38 74.8422C93.6028 74.8978 93.6328 74.8722 93.5728 74.6542C93.3328 73.7611 92.7843 73.1543 91.9058 72.8466C91.7987 72.8082 91.6829 72.7911 91.5672 72.7654ZM94.9013 74.8722C94.9013 74.8722 94.9356 74.8722 94.957 74.8636C95.8055 74.6713 96.6112 73.9876 96.8383 72.9364C96.8683 72.7954 96.8297 72.7654 96.6754 72.8039C96.2555 72.9065 95.8826 73.0988 95.5698 73.3936C95.1798 73.7611 94.927 74.2013 94.8199 74.7269C94.807 74.7952 94.7684 74.8764 94.9013 74.8722Z" fill="#A06313"/>
<path d="M94.1942 71.8766C94.3099 71.5689 94.3871 71.2826 94.5242 71.0305C95.0727 70.0007 95.9255 69.4195 97.1083 69.3511C97.3826 69.334 97.4768 69.4366 97.464 69.7101C97.3911 71.1074 96.3841 72.2313 95.2741 72.5304C94.4385 72.7526 93.59 72.7655 92.7886 72.398C91.6401 71.8681 91.0487 70.9365 90.9502 69.6887C90.9287 69.4152 91.0359 69.334 91.3101 69.3426C92.6686 69.3853 93.8042 70.428 94.1214 71.663C94.1385 71.7313 94.1642 71.7954 94.1942 71.8766ZM91.563 69.9579C91.683 70.8639 92.3729 71.757 93.4057 72.0219C93.5857 72.0689 93.6285 72.0176 93.5771 71.8253C93.3928 71.1544 93.0243 70.6117 92.4158 70.2528C92.1587 70.0989 91.8844 69.9878 91.5587 69.9579H91.563ZM96.834 70.0519C96.8083 70.0348 96.7697 69.9964 96.7226 69.9836C96.684 69.975 96.6326 69.9921 96.5898 70.0007C95.6641 70.2442 95.0084 70.9878 94.7942 71.898C94.7599 72.0433 94.7899 72.0646 94.9484 72.0262C95.5013 71.9023 95.9512 71.6074 96.3069 71.1715C96.5683 70.8553 96.7397 70.4964 96.834 70.0519Z" fill="#A06313"/>
<path d="M95.2484 68.6417C95.2398 69.5006 94.9227 70.2186 94.3313 70.8211C94.2542 70.898 94.1942 70.9493 94.0913 70.8424C93.5942 70.304 93.2386 69.7015 93.1614 68.9579C93.0671 68.0477 93.3543 67.2572 93.9499 66.5735C94.1128 66.3854 94.2756 66.3897 94.447 66.5777C94.9827 67.1675 95.2398 67.8597 95.2441 68.6417H95.2484ZM94.2028 67.1974C93.5728 67.9836 93.5428 69.2827 94.2113 70.0519C94.8841 69.2058 94.777 67.8982 94.2028 67.1974Z" fill="#A06313"/>
<path d="M96.8212 66.2743C96.8212 67.0349 96.8212 67.7913 96.8212 68.5519C96.8212 68.6118 96.8212 68.6716 96.8083 68.7272C96.774 68.8639 96.6712 68.9323 96.5341 68.9323C96.4012 68.9323 96.3155 68.8553 96.2855 68.7272C96.2726 68.6716 96.2769 68.6118 96.2769 68.5519C96.2769 67.0478 96.2769 65.5393 96.2769 64.0351C96.2769 63.9497 96.2812 63.8642 96.3026 63.7873C96.3369 63.6676 96.4226 63.5992 96.5469 63.6035C96.6798 63.6035 96.7698 63.6804 96.7997 63.8086C96.8212 63.8898 96.8169 63.9753 96.8169 64.0608C96.8169 64.8 96.8169 65.5393 96.8169 66.2829L96.8212 66.2743Z" fill="#A06313"/>
<path d="M92.12 66.2957C92.12 67.0435 92.12 67.787 92.12 68.5349C92.12 68.5947 92.12 68.6545 92.1158 68.71C92.0986 68.834 92.0215 68.9066 91.9015 68.928C91.7772 68.9494 91.6786 68.9066 91.6272 68.7912C91.5972 68.7186 91.5844 68.6289 91.5844 68.5477C91.5844 67.0307 91.5801 65.5094 91.5801 63.9924C91.5801 63.7317 91.6744 63.595 91.8501 63.595C92.0215 63.595 92.12 63.736 92.12 63.9967C92.12 64.7616 92.12 65.5265 92.12 66.2914C92.12 66.2914 92.12 66.2914 92.1243 66.2914L92.12 66.2957Z" fill="#A06313"/>
<path d="M93.9242 64.8128C93.9242 64.5137 93.9242 64.2145 93.9242 63.9197C93.9242 63.7103 94.0185 63.6035 94.1856 63.5992C94.3485 63.5992 94.4599 63.7231 94.4599 63.9325C94.4599 64.5222 94.4599 65.1119 94.4599 65.7016C94.4599 65.9067 94.3527 66.0264 94.1813 66.0264C94.0185 66.0264 93.9242 65.911 93.9199 65.7059C93.9199 65.4068 93.9199 65.1076 93.9199 64.8128H93.9242Z" fill="#A06313"/>
<path d="M14.7 80.9997V80.0211H15.1586C15.4628 80.0211 15.7371 79.9869 15.9771 79.9143C16.217 79.8416 16.4099 79.6964 16.5556 79.4784C16.7013 79.2605 16.7741 78.9357 16.7741 78.4998V67.8894C16.7741 67.4663 16.697 67.1544 16.5427 66.9407C16.3885 66.7313 16.1913 66.5903 15.9513 66.5262C15.7114 66.4621 15.4457 66.4279 15.1543 66.4279H14.7V65.4493H20.7081C22.6451 65.4493 24.0936 65.7656 25.0578 66.398C26.022 67.0304 26.502 68.0218 26.502 69.3722C26.502 70.0132 26.3863 70.5516 26.1506 70.996C25.9149 71.4404 25.5978 71.7994 25.1907 72.0729C24.7836 72.3506 24.3079 72.5728 23.7722 72.748V72.8549C24.4407 72.9873 25.0321 73.2138 25.5421 73.5429C26.052 73.8719 26.4506 74.3035 26.7334 74.8377C27.0163 75.3761 27.1577 76.0214 27.1577 76.7777C27.1577 78.1879 26.6777 79.2434 25.7135 79.9485C24.7536 80.6536 23.3008 81.004 21.3638 81.004H14.7V80.9997ZM20.6439 72.2865C21.4581 72.2865 22.0923 72.184 22.5466 71.9831C22.9965 71.778 23.318 71.4661 23.5065 71.0345C23.6951 70.6072 23.7893 70.0516 23.7893 69.3679C23.7893 68.3081 23.5494 67.5817 23.0694 67.1886C22.5894 66.7954 21.7666 66.5988 20.601 66.5988H19.3111V72.2865H20.6439ZM21.2567 79.8459C22.4223 79.8459 23.2451 79.6109 23.7251 79.1366C24.205 78.6665 24.445 77.8546 24.445 76.7094C24.445 75.9701 24.3465 75.3547 24.1493 74.8676C23.9522 74.3804 23.6265 74.0215 23.1765 73.7907C22.7266 73.56 22.0966 73.4403 21.2995 73.4403H19.3111V79.8459H21.2567Z" fill="#A06313"/>
<path d="M29.099 80.9998V80.0212H29.4718C29.776 80.0212 30.0589 79.9871 30.3117 79.923C30.5646 79.8589 30.7745 79.7221 30.9331 79.5213C31.0917 79.3162 31.1731 79.0128 31.1731 78.6068V67.8681C31.1731 67.4451 31.0874 67.1331 30.9202 66.9323C30.7531 66.7272 30.5431 66.5947 30.286 66.5306C30.0332 66.4665 29.7589 66.4323 29.4675 66.4323H29.0947V65.4537H35.2999C36.6241 65.4537 37.7126 65.6118 38.5654 65.9323C39.4182 66.2528 40.0482 66.7186 40.4553 67.3382C40.8624 67.9579 41.0681 68.7228 41.0681 69.6372C41.0681 70.4192 40.9095 71.0773 40.5967 71.6072C40.2838 72.1371 39.881 72.5602 39.3968 72.8806C38.9082 73.2011 38.4026 73.449 37.8797 73.6199L40.7852 78.2607C41.1624 78.8546 41.5223 79.2991 41.8652 79.5896C42.208 79.8802 42.598 80.0255 43.0351 80.0255H43.1208V81.0041H42.6837C41.7966 81.0041 41.0852 80.9571 40.5538 80.8631C40.0224 80.7691 39.5896 80.581 39.2554 80.2947C38.9211 80.0127 38.5911 79.5939 38.274 79.0427L35.4328 74.1626H33.7272V78.6068C33.7272 79.0128 33.8043 79.3204 33.9586 79.5213C34.1129 79.7264 34.3143 79.8589 34.5714 79.923C34.8242 79.9871 35.0985 80.0212 35.3899 80.0212H35.7156V80.9998H29.0947H29.099ZM35.1714 73.0687C36.3798 73.0687 37.2155 72.7909 37.674 72.2397C38.1326 71.6884 38.364 70.8509 38.364 69.7355C38.364 68.9663 38.2569 68.3467 38.0469 67.8852C37.8369 67.4194 37.4898 67.0818 37.0098 66.8725C36.5298 66.6631 35.9042 66.5562 35.1328 66.5562H33.7358V73.0729H35.1799L35.1714 73.0687Z" fill="#A06313"/>
<path d="M43.7808 80.9998V80.0212H44.1964C44.5007 80.0212 44.7793 79.9871 45.0278 79.9144C45.2764 79.8418 45.4735 79.705 45.6278 79.4999C45.782 79.2948 45.8592 79.0042 45.8592 78.6282V67.9322C45.8592 67.4835 45.782 67.1545 45.6278 66.9536C45.4735 66.7485 45.2721 66.6118 45.0278 66.5391C44.7793 66.4665 44.505 66.4323 44.1964 66.4323H43.7808V65.4537H55.1199L55.2056 69.3338H53.9586L53.8515 68.3553C53.8215 68.0348 53.7443 67.7442 53.6115 67.4835C53.4786 67.2229 53.2858 67.0135 53.0329 66.8511C52.7758 66.693 52.4373 66.6118 52.0173 66.6118H48.3919V72.3208H53.6586V73.4533H48.3919V79.8589H52.5658C53.0158 79.8589 53.3758 79.7777 53.6458 79.6196C53.9157 79.4614 54.1214 79.2478 54.2671 78.9871C54.4128 78.7264 54.5071 78.4359 54.55 78.1154L54.7042 77.1368H55.9513L55.797 81.0169H43.7808V80.9998Z" fill="#A06313"/>
<path d="M56.8255 80.9998V80.0212H57.1983C57.4897 80.0212 57.7254 79.9785 57.9097 79.8888C58.0897 79.8033 58.2611 79.6367 58.4111 79.3974C58.5654 79.1581 58.7196 78.8076 58.8825 78.3419L63.7121 65.4452H65.7648L70.6373 78.8205C70.7531 79.1239 70.8816 79.3632 71.0187 79.5384C71.1559 79.7136 71.323 79.8375 71.5201 79.9101C71.7173 79.9828 71.953 80.017 72.2315 80.017H72.4929V80.9955H66.1548V80.017H66.7248C67.1319 80.017 67.4404 79.9401 67.6547 79.7862C67.8647 79.6324 67.9718 79.3845 67.9718 79.0341C67.9718 78.9316 67.9633 78.8376 67.9504 78.7521C67.9333 78.6666 67.9118 78.5726 67.8861 78.4701C67.8561 78.3675 67.8218 78.2735 67.779 78.188L66.9476 75.8121H61.3123L60.5495 77.9915C60.5067 78.1068 60.4681 78.2265 60.4424 78.3504C60.4124 78.4743 60.3867 78.5897 60.3652 78.7008C60.3438 78.8076 60.331 78.9145 60.331 79.017C60.331 79.3504 60.4381 79.6025 60.6566 79.7691C60.8752 79.9358 61.2095 80.0212 61.6637 80.0212H62.2765V80.9998H56.8341H56.8255ZM61.7409 74.6583H66.5276L65.1949 70.8039C65.062 70.3808 64.9335 69.9877 64.8006 69.6159C64.6678 69.2441 64.5521 68.8852 64.4492 68.539C64.3464 68.1886 64.2521 67.8425 64.1664 67.4921C64.0935 67.8254 64.0078 68.1587 63.9136 68.4835C63.8193 68.8082 63.7164 69.1458 63.6093 69.4834C63.5022 69.8253 63.365 70.2056 63.2065 70.6286L61.7409 74.6583Z" fill="#A06313"/>
<path d="M73.2515 80.9997V80.0211H73.6886C73.9928 80.0211 74.2714 79.9827 74.5199 79.9015C74.7685 79.8203 74.9656 79.6707 75.1113 79.4528C75.257 79.2348 75.3299 78.9229 75.3299 78.5169V67.8637C75.3299 67.4578 75.2527 67.1501 75.0985 66.9492C74.9442 66.7441 74.7428 66.6074 74.4857 66.5347C74.2285 66.4621 73.95 66.4279 73.6457 66.4279H73.2515V65.4493H80.091C81.6209 65.4493 82.9322 65.7442 84.025 66.3296C85.1177 66.9193 85.9534 67.7868 86.5276 68.932C87.1019 70.0815 87.389 71.4789 87.389 73.1369C87.389 74.7949 87.1147 76.0983 86.5705 77.2777C86.0262 78.4528 85.212 79.3673 84.1364 80.0211C83.0565 80.6749 81.7108 80.9997 80.0953 80.9997H73.2557H73.2515ZM79.5896 79.8246C80.7123 79.8246 81.638 79.5639 82.3751 79.0383C83.1122 78.5169 83.6693 77.7563 84.0464 76.7606C84.4235 75.765 84.6163 74.5556 84.6163 73.1326C84.6163 71.7097 84.4278 70.5131 84.0464 69.5474C83.6693 68.5816 83.1122 67.8466 82.3751 67.3467C81.638 66.8467 80.7166 66.5946 79.611 66.5946H77.8626V79.8203H79.5896V79.8246Z" fill="#8F5924"/>
<path d="M107.787 81C106.215 81 104.908 80.6666 103.866 80C102.825 79.3334 102.049 78.3933 101.539 77.1882C101.029 75.9832 100.772 74.573 100.772 72.962C100.772 71.351 101.025 69.9493 101.539 68.7571C102.049 67.5649 102.829 66.6418 103.879 65.9795C104.929 65.3171 106.24 64.9881 107.813 64.9881C109.386 64.9881 110.586 65.3171 111.627 65.9795C112.669 66.6418 113.457 67.5691 113.997 68.7699C114.537 69.9664 114.807 71.3723 114.807 72.9876C114.807 74.6029 114.537 76.0045 113.997 77.2053C113.457 78.4018 112.669 79.3377 111.627 80.0043C110.586 80.6709 109.309 81.0042 107.792 81.0042L107.787 81ZM107.787 79.7564C108.837 79.7564 109.669 79.4872 110.29 78.9488C110.907 78.4104 111.353 77.6369 111.623 76.6284C111.893 75.6199 112.026 74.4021 112.026 72.9791C112.026 71.5561 111.893 70.3382 111.623 69.3297C111.353 68.3212 110.907 67.552 110.29 67.0222C109.669 66.4923 108.846 66.2273 107.809 66.2273C106.249 66.2273 105.152 66.817 104.509 67.9922C103.866 69.1673 103.549 70.8339 103.549 72.9833C103.549 74.4063 103.686 75.6242 103.965 76.6327C104.239 77.6412 104.693 78.4146 105.319 78.9531C105.945 79.4915 106.768 79.7607 107.787 79.7607V79.7564Z" fill="#8F5924"/>
<path d="M116.787 80.782V79.8035H117.138C117.473 79.8035 117.768 79.7693 118.021 79.6966C118.274 79.624 118.48 79.4787 118.634 79.2608C118.788 79.0428 118.865 78.7181 118.865 78.2822V67.6503C118.865 67.2273 118.784 66.9153 118.625 66.7145C118.467 66.5094 118.257 66.3769 118.004 66.3128C117.751 66.2487 117.477 66.2145 117.185 66.2145H116.791V65.236H121.029L128.829 76.9575V67.6546C128.829 67.2487 128.747 66.941 128.589 66.7273C128.426 66.5179 128.225 66.3769 127.976 66.3128C127.727 66.2487 127.453 66.2145 127.145 66.2145H126.75V65.236H132.3V66.2145H131.906C131.601 66.2145 131.319 66.253 131.066 66.3214C130.813 66.394 130.612 66.5393 130.466 66.7572C130.32 66.9752 130.247 67.3042 130.247 67.7358V80.7863H128.563L120.284 68.3896V78.2822C120.284 78.7181 120.357 79.0428 120.502 79.2608C120.648 79.4787 120.849 79.624 121.102 79.6966C121.355 79.7693 121.638 79.8035 121.942 79.8035H122.336V80.782H116.787Z" fill="#8F5924"/>
<path d="M94.1256 62.1464C91.7086 62.0823 89.7802 60.9841 88.0875 59.403C87.0718 58.4543 86.1033 57.4586 85.7305 56.0485C85.3662 54.6938 85.9662 53.4204 87.2004 52.7709C87.5775 52.5743 87.9332 52.2325 88.1517 51.8692C88.6788 50.9847 89.3388 50.3394 90.3716 50.0916C90.6116 50.036 90.9072 49.8181 90.993 49.6001C91.6701 47.8866 93.1699 47.0533 94.8412 47.7626C97.6868 48.9762 99.868 50.9334 100.652 54.0486C101.514 57.4629 99.2681 60.9841 95.7283 61.8985C95.2098 62.031 94.6613 62.0652 94.1256 62.1464ZM89.4931 52.8563C89.733 53.0871 89.9387 53.3008 90.1616 53.4888C90.783 54.0187 91.4558 54.493 92.0129 55.0784C92.2314 55.3049 92.3729 55.9545 92.2314 56.0955C91.9786 56.3476 91.4901 56.4288 91.0958 56.4459C90.873 56.4544 90.6244 56.2023 90.4187 56.0314C89.9173 55.6126 89.4288 55.181 88.9488 54.7408C88.6017 54.4204 88.2332 54.1939 87.7961 54.5229C87.3289 54.869 87.2518 55.369 87.5775 55.8177C88.1646 56.6254 88.7346 57.4715 89.4631 58.1424C90.9587 59.5269 92.6728 60.4285 94.8455 60.138C97.5668 59.7747 99.628 56.9031 98.8395 54.305C98.1153 51.9205 96.3497 50.412 94.1213 49.4377C93.3456 49.0959 92.8528 49.5659 92.4586 50.2753C93.1357 50.8906 93.8085 51.4804 94.4556 52.0914C94.8455 52.4632 95.1755 52.8905 94.7684 53.4375C94.447 53.8691 93.757 53.8648 93.2342 53.4503C92.8528 53.1469 92.48 52.8264 92.1157 52.4974C90.9801 51.4761 90.5173 51.5231 89.4931 52.8521V52.8563Z" fill="#8F5924"/>
<path d="M73.0672 60.4413C70.2731 60.2832 67.4747 60.155 64.6806 59.9456C63.5193 59.8602 62.3665 59.6294 61.2223 59.4072C60.4681 59.2619 60.1081 58.7748 60.271 58.2363C60.4767 57.5526 60.9866 57.4244 61.6294 57.5526C66.8962 58.6209 72.2229 58.6979 77.5583 58.3389C79.7995 58.1893 82.028 57.8176 84.2649 57.5313C84.9806 57.4372 85.5463 57.7535 85.5934 58.3859C85.6534 59.1294 85.1306 59.3474 84.5221 59.4628C80.738 60.1764 76.9155 60.3858 73.0672 60.4413Z" fill="#8F5924"/>
</g>
<defs>
<clipPath id="clip0_627_337">
<rect width="117.6" height="72" fill="white" transform="translate(14.7 9)"/>
</clipPath>
</defs>
</svg>
